{"title":"Revealed The Golden Temple ( Full Length with English Narrations","uid":6966283,"size":286230200,"categoryP":"video","categoryS":"other","magnet":"?xt=urn:btih:76c2c10893854319c9092531faac9023f87f3573&amp;dn=Revealed+The+Golden+Temple+%28+Full+Length+with+English+Narrations&amp;tr=udp%3A%2F%2Ftracker.openbittorrent.com%3A80&amp;tr=udp%3A%2F%2Fopen.demonii.com%3A1337&amp;tr=udp%3A%2F%2Ftracker.coppersurfer.tk%3A6969&amp;tr=udp%3A%2F%2Fexodus.desync.com%3A6969","seeders":0,"leechers":0,"uploader":null,"files":1,"time":1326932824,"description":"\nRevealed GOLDEN TEMPLE documentary on Discovery channel With English Narration\n\nIt took Delhi-based film-maker Rajendra Kondapalli almost a year to make a 50-minute documentary on the Golden Temple, perhaps the most sacred place for the Sikh community in India. The temple is visited by lakhs of people of various religious denominations every year.\n\nFormat : Flash Video\nFile size : 273 MiB\nDuration : 48mn 0s\nOverall bit rate : 795 Kbps\nLanguage : English\nSubtitles : English (for Hindi Parts)\n\n\nVideo\nFormat : AVC\nFormat/Info : Advanced Video Codec\nFormat profile : &lt;a class=&quot;__cf_email__&quot; href=&quot;/cdn-cgi/l/email-protection&quot; data-cfemail=&quot;024f636b6c424e312c32&quot;&gt;[email&amp;#160;protected]&lt;/a&gt;&lt;script cf-hash='f9e31' type=&quot;text/javascript&quot;&gt;\n/* &lt;![CDATA[ */!function(){try{var t=&quot;currentScript&quot;in document?document.currentScript:function(){for(var t=document.getElementsByTagName(&quot;script&quot;),e=t.length;e--;)if(t[e].getAttribute(&quot;cf-hash&quot;))return t[e]}();if(t&amp;&amp;t.previousSibling){var e,r,n,i,c=t.previousSibling,a=c.getAttribute(&quot;data-cfemail&quot;);if(a){for(e=&quot;&quot;,r=parseInt(a.substr(0,2),16),n=2;a.length-n;n+=2)i=parseInt(a.substr(n,2),16)^r,e+=String.fromCharCode(i);e=document.createTextNode(e),c.parentNode.replaceChild(e,c)}}}catch(u){}}();/* ]]&gt; */&lt;/script&gt;\nFormat settings, CABAC : Yes\nFormat settings, ReFrames : 3 frames\nFormat settings, GOP : M=1, N=25\nCodec ID : 7\nDuration : 48mn 0s\nBit rate : 659 Kbps\nWidth : 800 pixels\nHeight : 480 pixels\nDisplay aspect ratio : 1.667\nFrame rate mode : Constant\nFrame rate : 25.000 fps\nColor space : YUV\nChroma subsampling : 4:2:0\nBit depth : 8 bits\nScan type : Progressive\nBits/(Pixel*Frame) : 0.069\nStream size : 226 MiB (83%)\n\nAudio\nFormat : AAC\nFormat/Info : Advanced Audio Codec\nFormat profile : LC\nCodec ID : 10\nDuration : 48mn 0s\nBit rate : 128 Kbps\nChannel(s) : 2 channels\nChannel positions : Front: L R\nSampling rate : 44.1 KHz\nCompression mode : Lossy\nStream size : 44.1 MiB (16%)\n &lt;a href=&quot;\nhttp://img198.imageshack.us/img198/3418/60791664.jpg&quot; rel=&quot;nofollow&quot; target=&quot;_NEW&quot;&gt;\nhttp://img198.imageshack.us/img198/3418/60791664.jpg&lt;/a&gt; &lt;a href=&quot;\nhttp://img341.imageshack.us/img341/4518/70612730.jpg&quot; rel=&quot;nofollow&quot; target=&quot;_NEW&quot;&gt;\nhttp://img341.imageshack.us/img341/4518/70612730.jpg&lt;/a&gt; &lt;a href=&quot;\nhttp://img542.imageshack.us/img542/2015/36905934.jpg&quot; rel=&quot;nofollow&quot; target=&quot;_NEW&quot;&gt;\nhttp://img542.imageshack.us/img542/2015/36905934.jpg&lt;/a&gt; &lt;a href=&quot;\nhttp://img51.imageshack.us/img51/6592/43336341.jpg&quot; rel=&quot;nofollow&quot; target=&quot;_NEW&quot;&gt;\nhttp://img51.imageshack.us/img51/6592/43336341.jpg&lt;/a&gt; &lt;a href=&quot;\nhttp://img848.imageshack.us/img848/8316/30957834.jpg&quot; rel=&quot;nofollow&quot; target=&quot;_NEW&quot;&gt;\nhttp://img848.imageshack.us/img848/8316/30957834.jpg&lt;/a&gt;\n","torrent":{"xt":"urn:btih:76c2c10893854319c9092531faac9023f87f3573","amp;dn":"Revealed+The+Golden+Temple+%28+Full+Length+with+English+Narrations","amp;tr":["udp%3A%2F%2Ftracker.openbittorrent.com%3A80","udp%3A%2F%2Fopen.demonii.com%3A1337","udp%3A%2F%2Ftracker.coppersurfer.tk%3A6969","udp%3A%2F%2Fexodus.desync.com%3A6969"],"infoHash":"76c2c10893854319c9092531faac9023f87f3573","infoHashBuffer":{"type":"Buffer","data":[118,194,193,8,147,133,67,25,201,9,37,49,250,172,144,35,248,127,53,115]},"announce":[],"urlList":[]}}